<?xml version="1.0" encoding="UTF-8" standalone="no"?>
<svg
   xmlns:dc="http://purl.org/dc/elements/1.1/"
   xmlns:cc="http://creativecommons.org/ns#"
   xmlns:rdf="http://www.w3.org/1999/02/22-rdf-syntax-ns#"
   xmlns:svg="http://www.w3.org/2000/svg"
   xmlns="http://www.w3.org/2000/svg"
   xmlns:sodipodi="http://sodipodi.sourceforge.net/DTD/sodipodi-0.dtd"
   xmlns:inkscape="http://www.inkscape.org/namespaces/inkscape"
   data-name="Play button"
   viewBox="0 0 50 50"
   x="0px"
   y="0px"
   version="1.1"
   id="svg34"
   sodipodi:docname="play.svg"
   width="50"
   height="50"
   inkscape:version="0.92.4 (5da689c313, 2019-01-14)"
   inkscape:export-filename="C:\Users\beppe.f\Desktop\play.png"
   inkscape:export-xdpi="96"
   inkscape:export-ydpi="96">
  <metadata
     id="metadata40">
    <rdf:RDF>
      <cc:Work
         rdf:about="">
        <dc:format>image/svg+xml</dc:format>
        <dc:type
           rdf:resource="http://purl.org/dc/dcmitype/StillImage" />
        <dc:title>play</dc:title>
      </cc:Work>
    </rdf:RDF>
  </metadata>
  <defs
     id="defs38" />
  <sodipodi:namedview
     pagecolor="#ffffff"
     bordercolor="#666666"
     borderopacity="1"
     objecttolerance="10"
     gridtolerance="10"
     guidetolerance="10"
     inkscape:pageopacity="0"
     inkscape:pageshadow="2"
     inkscape:window-width="1920"
     inkscape:window-height="1017"
     id="namedview36"
     showgrid="false"
     inkscape:zoom="4.6125119"
     inkscape:cx="-2.581238"
     inkscape:cy="41.776545"
     inkscape:window-x="-8"
     inkscape:window-y="-8"
     inkscape:window-maximized="1"
     inkscape:current-layer="svg34" />
  <title
     id="title26">play</title>
  <path
     d="m 34.807692,25.961538 -15.865384,9.134616 a 0.96153846,0.96153846 0 0 1 -1.634616,-0.961539 v -18.26923 a 0.96153846,0.96153846 0 0 1 1.634616,-0.961539 l 15.865384,9.134616 a 1.0576923,1.0576923 0 0 1 0,1.923076 z M 50,25 A 25,25 0 1 1 25,0 25,25 0 0 1 50,25 Z m -3.846154,0 A 21.153846,21.153846 0 1 0 25,46.153846 21.153846,21.153846 0 0 0 46.153846,25 Z"
     id="path28"
     inkscape:connector-curvature="0"
     inkscape:export-xdpi="96"
     inkscape:export-ydpi="96"
     style="stroke-width:0.96153843" />
</svg>
