<?xml version="1.0" encoding="UTF-8" standalone="no"?>
<svg
   xmlns:dc="http://purl.org/dc/elements/1.1/"
   xmlns:cc="http://creativecommons.org/ns#"
   xmlns:rdf="http://www.w3.org/1999/02/22-rdf-syntax-ns#"
   xmlns:svg="http://www.w3.org/2000/svg"
   xmlns="http://www.w3.org/2000/svg"
   xmlns:sodipodi="http://sodipodi.sourceforge.net/DTD/sodipodi-0.dtd"
   xmlns:inkscape="http://www.inkscape.org/namespaces/inkscape"
   version="1.1"
   x="0px"
   y="0px"
   viewBox="0 0 50 50"
   xml:space="preserve"
   id="svg20"
   sodipodi:docname="trigger.svg"
   width="50"
   height="50"
   inkscape:version="0.92.4 (5da689c313, 2019-01-14)"
   inkscape:export-filename="C:\Users\beppe.f\Desktop\trigger.png"
   inkscape:export-xdpi="96"
   inkscape:export-ydpi="96"><metadata
     id="metadata26"><rdf:RDF><cc:Work
         rdf:about=""><dc:format>image/svg+xml</dc:format><dc:type
           rdf:resource="http://purl.org/dc/dcmitype/StillImage" /><dc:title /></cc:Work></rdf:RDF></metadata><defs
     id="defs24" /><sodipodi:namedview
     pagecolor="#ffffff"
     bordercolor="#666666"
     borderopacity="1"
     objecttolerance="10"
     gridtolerance="10"
     guidetolerance="10"
     inkscape:pageopacity="0"
     inkscape:pageshadow="2"
     inkscape:window-width="1920"
     inkscape:window-height="1017"
     id="namedview22"
     showgrid="false"
     inkscape:zoom="2.4251107"
     inkscape:cx="44.679464"
     inkscape:cy="100.51038"
     inkscape:window-x="-8"
     inkscape:window-y="-8"
     inkscape:window-maximized="1"
     inkscape:current-layer="svg20" /><style
     type="text/css"
     id="style2">
	.st0{fill:none;stroke:#000000;stroke-width:80;stroke-miterlimit:10;}
</style><g
     id="g60"
     transform="scale(0.25)"
     inkscape:export-filename="C:\Users\beppe.f\Desktop\trigger.png"
     inkscape:export-xdpi="96"
     inkscape:export-ydpi="96"><rect
       inkscape:export-ydpi="96"
       inkscape:export-xdpi="96"
       y="0"
       x="0"
       height="200"
       width="200"
       id="rect3733"
       style="fill:none;stroke-width:0.2" /><g
       inkscape:export-ydpi="96"
       inkscape:export-xdpi="96"
       transform="matrix(8.3851996,0,0,8.3851996,-34.608285,-40.410167)"
       id="g3755"
       data-name="21"><path
         id="path3737"
         d="M 16,27.47 A 10.41,10.41 0 1 1 26.4,17.06 10.42,10.42 0 0 1 16,27.47 Z M 16,8.16 a 8.91,8.91 0 1 0 8.9,8.9 8.92,8.92 0 0 0 -8.9,-8.9 z"
         inkscape:connector-curvature="0" /><path
         id="path3739"
         d="m 5.7,11.64 a 0.76,0.76 0 0 1 -0.38,-0.11 0.74,0.74 0 0 1 -0.26,-1 12.71,12.71 0 0 1 5.31,-4.91 0.76,0.76 0 0 1 1,0.35 0.74,0.74 0 0 1 -0.35,1 11.26,11.26 0 0 0 -4.69,4.33 0.73,0.73 0 0 1 -0.63,0.34 z"
         inkscape:connector-curvature="0" /><path
         id="path3741"
         d="M 26.4,11.68 A 0.74,0.74 0 0 1 25.76,11.31 11.34,11.34 0 0 0 21.17,7 0.74,0.74 0 0 1 20.84,6 a 0.75,0.75 0 0 1 1,-0.33 12.73,12.73 0 0 1 5.2,4.88 0.75,0.75 0 0 1 -0.65,1.13 z"
         inkscape:connector-curvature="0" /><path
         id="path3743"
         d="m 16,7.71 c -1.06,0 -1.83,-0.54 -1.83,-1.29 0,-0.75 0.83,-1.3 1.83,-1.3 1,0 1.83,0.55 1.83,1.3 0,0.75 -0.73,1.29 -1.83,1.29 z m 0.45,-1 z"
         inkscape:connector-curvature="0" /><path
         id="path3745"
         d="M 10.7,28.37 A 1.29,1.29 0 0 1 9.41,27.08 v -1.23 a 1.29,1.29 0 1 1 2.58,0 v 1.23 a 1.29,1.29 0 0 1 -1.29,1.29 z"
         inkscape:connector-curvature="0" /><path
         id="path3747"
         d="m 21.51,28.37 a 1.29,1.29 0 0 1 -1.29,-1.29 v -1.23 a 1.29,1.29 0 1 1 2.58,0 v 1.23 a 1.29,1.29 0 0 1 -1.29,1.29 z"
         inkscape:connector-curvature="0" /><path
         id="path3749"
         d="M 16,18.12 A 1.06,1.06 0 1 1 17.06,17.06 1.05,1.05 0 0 1 16,18.12 Z m 0,-1.5 A 0.44,0.44 0 1 0 16.44,17.06 0.44,0.44 0 0 0 16,16.62 Z"
         inkscape:connector-curvature="0" /><path
         id="path3751"
         d="m 16,17.81 h -3 a 0.75,0.75 0 0 1 0,-1.5 h 3 a 0.75,0.75 0 0 1 0,1.5 z"
         inkscape:connector-curvature="0" /><path
         id="path3753"
         d="m 16,17.5 v 0 a 0.75,0.75 0 0 1 -0.75,-0.75 v -5.82 a 0.74,0.74 0 0 1 0.75,-0.75 0.75,0.75 0 0 1 0.75,0.76 v 5.81 A 0.75,0.75 0 0 1 16,17.5 Z"
         inkscape:connector-curvature="0" /></g></g></svg>