<svg xmlns="http://www.w3.org/2000/svg" xmlns:xlink="http://www.w3.org/1999/xlink" version="1.1" x="0px" y="0px" viewBox="0 0 1024 1280" style="enable-background:new 0 0 1024 1024;" xml:space="preserve"><style type="text/css">
	.st0{fill:none;stroke:#000000;stroke-width:80;stroke-miterlimit:10;}
</style><g><path class="st0" d="M903,805c0,32-26,58-58,58H180c-32,0-58-26-58-58V363c0-32,26-58,58-58h665c32,0,58,26,58,58   V805z"/><path class="st0" d="M351,305v-99.7c0-24.2,20-44.3,44.2-44.3h235.7c24.2,0,44.2,20.1,44.2,44.3V305"/><rect x="469.5" y="480" class="st0" width="86.9" height="64"/><line class="st0" x1="346" y1="512" x2="122" y2="512"/><line class="st0" x1="903" y1="512" x2="679" y2="512"/></g><text x="0" y="1039" fill="#000000" font-size="5px" font-weight="bold" font-family="'Helvetica Neue', Helvetica, Arial-Unicode, Arial, Sans-serif">Created by shashank singh</text><text x="0" y="1044" fill="#000000" font-size="5px" font-weight="bold" font-family="'Helvetica Neue', Helvetica, Arial-Unicode, Arial, Sans-serif">from the Noun Project</text></svg>