<svg xmlns="http://www.w3.org/2000/svg" viewBox="0 0 32 40" x="0px" y="0px"><title>clock</title><g data-name="21"><path d="M16,27.47a10.41,10.41,0,1,1,10.4-10.41A10.42,10.42,0,0,1,16,27.47ZM16,8.16a8.91,8.91,0,1,0,8.9,8.9A8.92,8.92,0,0,0,16,8.16Z"/><path d="M5.7,11.64a.76.76,0,0,1-.38-.11.74.74,0,0,1-.26-1,12.71,12.71,0,0,1,5.31-4.91.76.76,0,0,1,1,.35.74.74,0,0,1-.35,1,11.26,11.26,0,0,0-4.69,4.33A.73.73,0,0,1,5.7,11.64Z"/><path d="M26.4,11.68a.74.74,0,0,1-.64-.37A11.34,11.34,0,0,0,21.17,7a.74.74,0,0,1-.33-1,.75.75,0,0,1,1-.33,12.73,12.73,0,0,1,5.2,4.88.75.75,0,0,1-.65,1.13Z"/><path d="M16,7.71c-1.06,0-1.83-.54-1.83-1.29S15,5.12,16,5.12s1.83.55,1.83,1.3S17.1,7.71,16,7.71Zm.45-1h0Z"/><path d="M10.7,28.37a1.29,1.29,0,0,1-1.29-1.29V25.85a1.29,1.29,0,1,1,2.58,0v1.23A1.29,1.29,0,0,1,10.7,28.37Z"/><path d="M21.51,28.37a1.29,1.29,0,0,1-1.29-1.29V25.85a1.29,1.29,0,1,1,2.58,0v1.23A1.29,1.29,0,0,1,21.51,28.37Z"/><path d="M16,18.12a1.06,1.06,0,1,1,1.06-1.06A1.05,1.05,0,0,1,16,18.12Zm0-1.5a.44.44,0,1,0,.44.44A.44.44,0,0,0,16,16.62Z"/><path d="M16,17.81H13a.75.75,0,0,1,0-1.5h3a.75.75,0,0,1,0,1.5Z"/><path d="M16,17.5h0a.75.75,0,0,1-.75-.75l0-5.82a.74.74,0,0,1,.75-.75.75.75,0,0,1,.75.76l0,5.81A.75.75,0,0,1,16,17.5Z"/></g><text x="0" y="47" fill="#000000" font-size="5px" font-weight="bold" font-family="'Helvetica Neue', Helvetica, Arial-Unicode, Arial, Sans-serif">Created by SalahCoret Studio</text><text x="0" y="52" fill="#000000" font-size="5px" font-weight="bold" font-family="'Helvetica Neue', Helvetica, Arial-Unicode, Arial, Sans-serif">from the Noun Project</text></svg>